<svg xmlns="http://www.w3.org/2000/svg" viewBox="0 0 1280 640" width="1280" height="640">
  <defs>
    <linearGradient id="bg" x1="0" y1="0" x2="1" y2="1">
      <stop offset="0" stop-color="#0d2149"/><stop offset="1" stop-color="#06112a"/>
    </linearGradient>
  </defs>
  <rect width="1280" height="640" fill="url(#bg)"/>
  <path d="M8 0C3.58 0 0 3.58 0 8c0 3.54 2.29 6.53 5.47 7.59.4.07.55-.17.55-.38 0-.19-.01-.82-.01-1.49-2.01.37-2.53-.49-2.69-.94-.09-.23-.48-.94-.82-1.13-.28-.15-.68-.52-.01-.53.63-.01 1.08.58 1.23.82.72 1.21 1.87.87 2.33.66.07-.52.28-.87.51-1.07-1.78-.2-3.64-.89-3.64-3.95 0-.87.31-1.59.82-2.15-.08-.2-.36-1.02.08-2.12 0 0 .67-.21 2.2.82.64-.18 1.32-.27 2-.27.68 0 1.36.09 2 .27 1.53-1.04 2.2-.82 2.2-.82.44 1.1.16 1.92.08 2.12.51.56.82 1.27.82 2.15 0 3.07-1.87 3.75-3.65 3.95.29.25.54.73.54 1.48 0 1.07-.01 1.93-.01 2.2 0 .21.15.46.55.38A8.013 8.013 0 0016 8c0-4.42-3.58-8-8-8z" transform="translate(1176,44) scale(3.75)" fill="#a9c0ea" opacity=".75"/>
  <circle cx="640" cy="170" r="105" fill="#274690"/>
  <circle cx="610.6" cy="170" r="75.6" fill="#3f6fd6"/>
  <circle cx="585.4" cy="170" r="50.4" fill="#6a9bf7"/>
  <circle cx="564.4" cy="170" r="29.4" fill="#c7dcff"/>
  <text x="640" y="374" text-anchor="middle" fill="#ffffff" font-family="Helvetica Neue, Helvetica, Arial, sans-serif" font-size="84" font-weight="700" letter-spacing="-2">MCAD_base</text>
  <text x="640" y="426" text-anchor="middle" fill="#a9c0ea" font-family="Helvetica Neue, Helvetica, Arial, sans-serif" font-size="32">An open-source folder standard for manufacturing</text>
  <rect x="246" y="462" width="190" height="46" rx="23" fill="#16306a" stroke="#3f6fd6" stroke-width="1.5"/>
  <text x="341" y="493" text-anchor="middle" fill="#c7dcff" font-family="Helvetica Neue, Helvetica, Arial, sans-serif" font-size="22">CNC machining</text>
  <rect x="452" y="462" width="130" height="46" rx="23" fill="#16306a" stroke="#3f6fd6" stroke-width="1.5"/>
  <text x="517" y="493" text-anchor="middle" fill="#c7dcff" font-family="Helvetica Neue, Helvetica, Arial, sans-serif" font-size="22">Additive</text>
  <rect x="598" y="462" width="270" height="46" rx="23" fill="#16306a" stroke="#3f6fd6" stroke-width="1.5"/>
  <text x="733" y="493" text-anchor="middle" fill="#c7dcff" font-family="Helvetica Neue, Helvetica, Arial, sans-serif" font-size="22">Autodesk Fusion sync</text>
  <rect x="884" y="462" width="150" height="46" rx="23" fill="#16306a" stroke="#3f6fd6" stroke-width="1.5"/>
  <text x="959" y="493" text-anchor="middle" fill="#c7dcff" font-family="Helvetica Neue, Helvetica, Arial, sans-serif" font-size="22">Apache-2.0</text>
</svg>
